<svg id="bg" xmlns="http://www.w3.org/2000/svg" xmlns:xlink="http://www.w3.org/1999/xlink" width="402" height="368.36" viewBox="0 0 402 368.36">
  <defs>
    <linearGradient id="linear-gradient" x1="0.196" y1="0.045" x2="0.692" y2="0.661" gradientUnits="objectBoundingBox">
      <stop offset="0" stop-color="#fff"/>
      <stop offset="0.28" stop-color="#3499ff"/>
      <stop offset="1" stop-color="#3a3985"/>
    </linearGradient>
    <linearGradient id="linear-gradient-2" x1="0.733" y1="0.099" x2="0.754" y2="0.757" gradientUnits="objectBoundingBox">
      <stop offset="0" stop-color="#fff"/>
      <stop offset="0.314" stop-color="#3499ff"/>
      <stop offset="1" stop-color="#3a3985"/>
    </linearGradient>
  </defs>
  <path id="Path_10" data-name="Path 10" d="M.209.179v317c.292-.26.762-.669,1.425-1.2,1.1-.889,2.956-2.311,5.555-4.038q4.642-3.065,9.636-5.7,6.8-3.6,14.033-6.537a222.461,222.461,0,0,1,42.52-12.232c4.5-.853,9.167-1.619,13.871-2.277,4.951-.69,10.081-1.282,15.246-1.754,5.416-.5,11.022-.875,16.66-1.13,5.895-.265,11.989-.4,18.114-.4a42.171,42.171,0,0,0,5.334-.36q2.887-.38,5.713-1.026a108.194,108.194,0,0,0,12.395-3.692c3.934-1.4,8.195-3.079,13.409-5.286,4.6-1.949,9.214-4,14.1-6.164,10.584-4.7,21.528-9.56,32.151-13.229,2.745-.949,5.405-1.793,7.907-2.512,2.683-.769,5.288-1.424,7.746-1.945q3.725-.8,7.533-1.261a62.527,62.527,0,0,1,7.262-.446,48.566,48.566,0,0,1,6.106.373,22.11,22.11,0,0,1,5.1,1.3,26.443,26.443,0,0,1,4.744,2.419,36.013,36.013,0,0,1,4.431,3.367,52.7,52.7,0,0,1,4.166,4.147c1.3,1.434,2.587,2.991,3.947,4.759,1.21,1.573,2.447,3.274,3.78,5.205,2.472,3.581,4.89,7.394,7.231,11.081,1.827,2.881,3.717,5.861,5.585,8.649,2.088,3.12,3.945,5.691,5.674,7.862a52.264,52.264,0,0,0,5.929,6.419,30.938,30.938,0,0,0,3.111,2.462,22.4,22.4,0,0,0,3.233,1.859c2.929,1.357,5.941,2.634,8.956,3.794,2.879,1.108,5.837,2.141,8.789,3.068,2.81.882,5.689,1.693,8.56,2.408,2.718.678,5.5,1.289,8.263,1.818a154.509,154.509,0,0,0,28.862,2.725c3.434,0,6.868-.118,10.205-.35,2.67-.185,5.284-.445,7.773-.769,3.632-.473,5.933-.954,6.53-1.083V.179H.209M0,0H402V317.633s-9.626,2.243-24.717,2.243a151.277,151.277,0,0,1-63.527-13.835c-20.2-9.363-31.893-56.317-56.868-59.509a47.91,47.91,0,0,0-6.075-.371c-35.871,0-84.468,35.922-113.545,35.922C36.768,282.082,0,317.633,0,317.633Z" transform="translate(0)" fill="url(#linear-gradient)"/>
  <g id="Group_3" data-name="Group 3">
    <path id="Path_11" data-name="Path 11" d="M370.369,355.376a134.348,134.348,0,0,1-28.323-3.03c-2.715-.585-5.444-1.264-8.111-2.018-2.817-.8-5.642-1.7-8.4-2.675-2.9-1.031-5.8-2.177-8.625-3.407-2.96-1.29-5.916-2.709-8.787-4.216a21.583,21.583,0,0,1-3.187-2.074,31.266,31.266,0,0,1-3.06-2.743,55.993,55.993,0,0,1-5.826-7.137c-1.7-2.412-3.518-5.268-5.566-8.734-1.833-3.1-3.686-6.4-5.478-9.6-2.293-4.092-4.666-8.326-7.088-12.3-1.307-2.142-2.518-4.029-3.7-5.772-1.335-1.961-2.6-3.686-3.868-5.276a54.679,54.679,0,0,0-4.077-4.6,36.131,36.131,0,0,0-4.332-3.728,25.019,25.019,0,0,0-4.634-2.675,19.582,19.582,0,0,0-4.98-1.431,41.913,41.913,0,0,0-5.971-.414,54.045,54.045,0,0,0-7.107.5,73.393,73.393,0,0,0-7.377,1.4c-2.406.579-4.961,1.306-7.587,2.16-2.451.8-5.057,1.734-7.749,2.784-10.411,4.07-21.141,9.464-31.517,14.681-4.788,2.406-9.31,4.681-13.825,6.843-5.115,2.452-9.3,4.317-13.155,5.872a97.166,97.166,0,0,1-12.167,4.1,53.907,53.907,0,0,1-5.613,1.141,36.834,36.834,0,0,1-5.246.4c-6,0-11.979.149-17.758.444-5.527.281-11.022.7-16.332,1.254-5.063.523-10.091,1.178-14.945,1.946-4.611.728-9.186,1.578-13.6,2.524A199.093,199.093,0,0,0,30.7,333.166a144.555,144.555,0,0,0-13.751,7.249,110.5,110.5,0,0,0-9.44,6.327c-2.545,1.912-4.363,3.489-5.439,4.476-.8.729-1.317,1.252-1.569,1.513V.5h394V352.91c-.436.109-2.741.669-6.487,1.222-2.441.362-5.008.649-7.628.856C377.111,355.245,373.74,355.376,370.369,355.376Z" fill="url(#linear-gradient-2)"/>
    <path id="Path_12" data-name="Path 12" d="M.206.2V352.876c.287-.289.749-.744,1.4-1.341,1.081-.989,2.9-2.571,5.458-4.492a110.886,110.886,0,0,1,9.468-6.346,145.047,145.047,0,0,1,13.789-7.274A199.588,199.588,0,0,1,72.1,319.815c4.421-.949,9.007-1.8,13.629-2.533,4.865-.768,9.905-1.426,14.98-1.951,5.322-.553,10.83-.973,16.37-1.257,5.792-.3,11.78-.445,17.8-.445a36.674,36.674,0,0,0,5.241-.4,54.27,54.27,0,0,0,5.614-1.141,97.2,97.2,0,0,0,12.179-4.107c3.865-1.558,8.052-3.425,13.175-5.881,4.523-2.168,9.054-4.447,13.851-6.858,10.4-5.23,21.153-10.637,31.591-14.718,2.7-1.056,5.311-1.994,7.769-2.795,2.636-.856,5.2-1.584,7.612-2.164a73.692,73.692,0,0,1,7.4-1.4,54.36,54.36,0,0,1,7.135-.5,42.223,42.223,0,0,1,6,.415,19.7,19.7,0,0,1,5.016,1.444,24.992,24.992,0,0,1,4.661,2.691,36.216,36.216,0,0,1,4.354,3.746,55.693,55.693,0,0,1,4.094,4.615c1.273,1.6,2.542,3.327,3.878,5.294,1.189,1.749,2.4,3.643,3.714,5.791,2.429,3.984,4.8,8.227,7.1,12.328,1.8,3.206,3.653,6.521,5.487,9.623,2.052,3.471,3.876,6.331,5.575,8.747a56.051,56.051,0,0,0,5.826,7.141,31.335,31.335,0,0,0,3.056,2.739,21.509,21.509,0,0,0,3.174,2.07c2.878,1.51,5.838,2.93,8.8,4.221,2.829,1.232,5.735,2.382,8.636,3.413,2.761.981,5.59,1.883,8.41,2.679,2.671.754,5.4,1.434,8.119,2.023a134.68,134.68,0,0,0,28.359,3.032c3.374,0,6.748-.132,10.028-.389,2.624-.206,5.192-.495,7.638-.856,3.569-.527,5.83-1.061,6.416-1.2V.2H.206M0,0H395V353.381s-9.457,2.5-24.286,2.5a134.155,134.155,0,0,1-62.421-15.392c-19.844-10.417-31.338-62.655-55.878-66.206a41.648,41.648,0,0,0-5.969-.413c-35.247,0-83,39.964-111.567,39.964C36.128,313.829,0,353.38,0,353.38Z" fill="url(#linear-gradient-2)"/>
  </g>
  <g id="Group_4" data-name="Group 4" transform="translate(0)" opacity="0.42">
    <path id="Path_13" data-name="Path 13" d="M.206.186V329.558c.287-.27.749-.7,1.4-1.252,1.081-.924,2.9-2.4,5.458-4.2q4.557-3.182,9.468-5.926a148.853,148.853,0,0,1,13.789-6.792A209.6,209.6,0,0,1,72.1,298.683c4.421-.887,9.007-1.682,13.629-2.366,4.865-.717,9.905-1.332,14.981-1.822,5.322-.516,10.83-.909,16.37-1.174,5.792-.276,11.78-.415,17.8-.415a39.213,39.213,0,0,0,5.241-.374q2.838-.395,5.613-1.066a101.9,101.9,0,0,0,12.179-3.836c3.865-1.455,8.052-3.2,13.176-5.492,4.523-2.025,9.054-4.153,13.851-6.406,10.4-4.885,21.153-9.933,31.591-13.745,2.7-.986,5.311-1.863,7.769-2.61,2.636-.8,5.2-1.479,7.612-2.021q3.659-.83,7.4-1.31a58.144,58.144,0,0,1,7.135-.464,45.153,45.153,0,0,1,6,.387,20.778,20.778,0,0,1,5.016,1.349,25.478,25.478,0,0,1,4.661,2.513,35.654,35.654,0,0,1,4.354,3.5,53.333,53.333,0,0,1,4.094,4.309c1.273,1.491,2.542,3.107,3.878,4.944,1.189,1.634,2.4,3.4,3.714,5.408,2.429,3.72,4.8,7.683,7.1,11.513,1.8,2.994,3.653,6.09,5.487,8.987,2.052,3.242,3.876,5.913,5.575,8.169a53.254,53.254,0,0,0,5.826,6.67,30.738,30.738,0,0,0,3.054,2.557,21.734,21.734,0,0,0,3.177,1.933c2.878,1.41,5.838,2.737,8.8,3.942,2.829,1.151,5.735,2.224,8.636,3.188,2.761.917,5.59,1.759,8.41,2.5,2.671.7,5.4,1.34,8.119,1.889a143.845,143.845,0,0,0,28.359,2.832c3.374,0,6.748-.123,10.028-.363,2.624-.192,5.192-.462,7.638-.8,3.569-.492,5.83-.991,6.416-1.125V.186H.206M0,0H395V330.031s-9.457,2.33-24.286,2.33a141.834,141.834,0,0,1-62.421-14.375c-19.844-9.729-31.338-58.515-55.878-61.831a44.553,44.553,0,0,0-5.969-.386c-35.247,0-83,37.323-111.567,37.323C36.128,293.092,0,330.03,0,330.03Z" transform="translate(0)" fill="url(#linear-gradient)"/>
    <path id="Path_14" data-name="Path 14" d="M370.835,367.36a130.468,130.468,0,0,1-28.359-3.131c-2.718-.6-5.451-1.307-8.122-2.086-2.82-.823-5.649-1.753-8.41-2.765-2.9-1.066-5.807-2.251-8.636-3.523-2.964-1.333-5.924-2.8-8.8-4.358a21.551,21.551,0,0,1-3.191-2.144,31.644,31.644,0,0,1-3.064-2.835,57.606,57.606,0,0,1-5.834-7.378c-1.7-2.494-3.523-5.446-5.573-9.028-1.835-3.2-3.691-6.621-5.485-9.928-2.3-4.23-4.672-8.607-7.1-12.714-1.309-2.214-2.521-4.164-3.708-5.967-1.336-2.027-2.6-3.811-3.873-5.455A55.975,55.975,0,0,0,266.6,291.3a36.531,36.531,0,0,0-4.338-3.854,24.87,24.87,0,0,0-4.639-2.765,19.144,19.144,0,0,0-4.986-1.479,40.667,40.667,0,0,0-5.979-.428,52.432,52.432,0,0,0-7.116.512,71.389,71.389,0,0,0-7.387,1.442c-2.409.6-4.967,1.35-7.6,2.232-2.454.823-5.063,1.792-7.758,2.879-10.424,4.208-21.168,9.784-31.557,15.176-4.794,2.488-9.322,4.839-13.843,7.074-5.121,2.535-9.307,4.463-13.172,6.07a95.317,95.317,0,0,1-12.183,4.241,52.459,52.459,0,0,1-5.62,1.179,35.742,35.742,0,0,1-5.252.416c-6.012,0-11.995.154-17.78.459-5.534.29-11.036.726-16.353,1.3-5.069.541-10.1,1.218-14.964,2.012-4.617.753-9.2,1.632-13.614,2.609A194.891,194.891,0,0,0,30.737,344.4a143.222,143.222,0,0,0-13.769,7.494,110.489,110.489,0,0,0-9.452,6.541c-2.548,1.977-4.368,3.607-5.447,4.627-.8.753-1.319,1.294-1.571,1.564V.5H395V364.812q-3.213.787-6.5,1.263c-2.444.374-5.014.671-7.638.885C377.586,367.224,374.211,367.36,370.835,367.36Z" transform="translate(0 1)" fill="url(#linear-gradient-2)"/>
    <path id="Path_15" data-name="Path 15" d="M.2.206V365.256c.282-.3.736-.77,1.375-1.388,1.061-1.024,2.853-2.661,5.361-4.65a108.719,108.719,0,0,1,9.3-6.569,140.116,140.116,0,0,1,13.545-7.528,188.99,188.99,0,0,1,41.039-14.086c4.343-.983,8.847-1.865,13.388-2.622,4.779-.8,9.73-1.476,14.715-2.019,5.228-.572,10.638-1.008,16.08-1.3,5.689-.305,11.571-.46,17.483-.46a34.231,34.231,0,0,0,5.148-.415,50.929,50.929,0,0,0,5.514-1.181,92.076,92.076,0,0,0,11.963-4.251c3.8-1.613,7.91-3.545,12.942-6.086,4.442-2.244,8.893-4.6,13.605-7.1,10.215-5.414,20.778-11.01,31.032-15.234,2.65-1.092,5.217-2.065,7.631-2.893,2.589-.886,5.1-1.64,7.476-2.24a69.1,69.1,0,0,1,7.271-1.452,50.729,50.729,0,0,1,7.009-.514,39.4,39.4,0,0,1,5.893.43,18.6,18.6,0,0,1,4.927,1.495,24.273,24.273,0,0,1,4.579,2.785,36.162,36.162,0,0,1,4.277,3.879,56.794,56.794,0,0,1,4.021,4.776c1.25,1.651,2.5,3.444,3.81,5.48,1.168,1.81,2.362,3.77,3.648,5.994,2.386,4.123,4.72,8.515,6.979,12.761,1.765,3.318,3.588,6.75,5.39,9.961,2.015,3.593,3.808,6.554,5.476,9.054a57.5,57.5,0,0,0,5.722,7.392,31.38,31.38,0,0,0,3,2.835,21.053,21.053,0,0,0,3.121,2.141c2.827,1.563,5.734,3.033,8.644,4.369,2.779,1.276,5.634,2.466,8.483,3.533,2.712,1.016,5.491,1.949,8.261,2.773,2.624.78,5.307,1.485,7.975,2.094a125.815,125.815,0,0,0,27.857,3.138c3.314,0,6.628-.136,9.85-.4,2.577-.213,5.1-.512,7.5-.886,3.506-.545,5.727-1.1,6.3-1.247V.206H.2M0,0H388V365.777s-9.289,2.584-23.856,2.584a126.423,126.423,0,0,1-61.315-15.932c-19.493-10.782-30.782-64.853-54.888-68.529a38.877,38.877,0,0,0-5.863-.428c-34.622,0-81.526,41.366-109.59,41.366C35.488,324.839,0,365.777,0,365.777Z" transform="translate(0)" fill="url(#linear-gradient-2)"/>
  </g>
</svg>
