<svg xmlns="http://www.w3.org/2000/svg" width="75" height="90" viewBox="0 0 75 90">
  <g id="menuicon" transform="translate(-0.002)">
    <path id="menu_icon" data-name="menu icon" d="M4.688,90C2.1,90,0,87.482,0,84.375V82.766c0-3.107,2.1-5.625,4.688-5.625H70.313C72.9,77.141,75,79.66,75,82.766v1.609C75,87.482,72.9,90,70.313,90Zm0-38.576C2.1,51.424,0,48.905,0,45.8V44.2c0-3.107,2.1-5.625,4.688-5.625h37.5c2.589,0,4.688,2.518,4.688,5.625v1.6c0,3.107-2.1,5.625-4.687,5.625Zm0-38.565C2.1,12.859,0,10.34,0,7.234V5.625C0,2.518,2.1,0,4.688,0H70.313C72.9,0,75,2.518,75,5.625V7.234c0,3.107-2.1,5.625-4.687,5.625Z" transform="translate(75.002 90) rotate(180)" fill="#ff9600"/>
  </g>
</svg>
