<svg xmlns="http://www.w3.org/2000/svg" width="115" height="140.968" viewBox="0 0 115 140.968">
  <g id="menu_icon" data-name="menu icon" transform="translate(-0.002)">
    <path id="menu_icon-2" data-name="menu icon" d="M7.188,140.968c-3.97,0-7.187-3.945-7.187-8.81v-2.52c0-4.866,3.218-8.81,7.188-8.81H107.813c3.97,0,7.188,3.945,7.188,8.81v2.52c0,4.866-3.218,8.81-7.187,8.81Zm0-60.422C3.218,80.545,0,76.6,0,71.735V69.224c0-4.866,3.218-8.81,7.188-8.81h57.5c3.97,0,7.188,3.945,7.188,8.81v2.511c0,4.866-3.218,8.81-7.187,8.81Zm0-60.4C3.218,20.141,0,16.2,0,11.33V8.81C0,3.945,3.218,0,7.188,0H107.813C111.782,0,115,3.945,115,8.81v2.52c0,4.866-3.218,8.81-7.187,8.81Z" transform="translate(115.002 140.968) rotate(180)" fill="#ff9600"/>
  </g>
</svg>
